<?xml version="1.0" encoding="UTF-8" standalone="no"?>
<!-- Created with Inkscape (http://www.inkscape.org/) -->

<svg
   version="1.1"
   id="svg2"
   xml:space="preserve"
   width="666.66669"
   height="666.66669"
   viewBox="0 0 666.66669 666.66669"
   sodipodi:docname="8351263_3884688.ai"
   xmlns:inkscape="http://www.inkscape.org/namespaces/inkscape"
   xmlns:sodipodi="http://sodipodi.sourceforge.net/DTD/sodipodi-0.dtd"
   xmlns="http://www.w3.org/2000/svg"
   xmlns:svg="http://www.w3.org/2000/svg"><defs
     id="defs6"><clipPath
       clipPathUnits="userSpaceOnUse"
       id="clipPath18"><path
         d="M 0,500 H 500 V 0 H 0 Z"
         id="path16" /></clipPath><clipPath
       clipPathUnits="userSpaceOnUse"
       id="clipPath132"><path
         d="M 0,500 H 500 V 0 H 0 Z"
         id="path130" /></clipPath><clipPath
       clipPathUnits="userSpaceOnUse"
       id="clipPath208"><path
         d="M 269.477,241.222 H 391.532 V 122.645 H 269.477 Z"
         id="path206" /></clipPath></defs><sodipodi:namedview
     id="namedview4"
     pagecolor="#ffffff"
     bordercolor="#666666"
     borderopacity="1.0"
     inkscape:pageshadow="2"
     inkscape:pageopacity="0.0"
     inkscape:pagecheckerboard="0" /><g
     id="g8"
     inkscape:groupmode="layer"
     inkscape:label="8351263_3884688"
     transform="matrix(1.3333333,0,0,-1.3333333,0,666.66667)"><path
       d="M 0,0 H 500 V 500 H 0 Z"
       style="fill:#ffffff;fill-opacity:1;fill-rule:nonzero;stroke:none"
       id="path10" /><g
       id="g12"><g
         id="g14"
         clip-path="url(#clipPath18)"><g
           id="g20"
           transform="translate(171.8857,52.251)"><path
             d="m 0,0 c 0,-5.236 -19.685,-9.481 -43.968,-9.481 -24.282,0 -43.968,4.245 -43.968,9.481 0,5.236 19.686,9.481 43.968,9.481 C -19.685,9.481 0,5.236 0,0"
             style="fill:#deeeff;fill-opacity:1;fill-rule:nonzero;stroke:none"
             id="path22" /></g><g
           id="g24"
           transform="translate(415.709,52.251)"><path
             d="m 0,0 c 0,-5.236 -24.03,-9.481 -53.674,-9.481 -29.642,0 -53.673,4.245 -53.673,9.481 0,5.236 24.031,9.481 53.673,9.481 C -24.03,9.481 0,5.236 0,0"
             style="fill:#deeeff;fill-opacity:1;fill-rule:nonzero;stroke:none"
             id="path26" /></g><g
           id="g28"
           transform="translate(434.3691,61.7324)"><path
             d="m 0,0 c 0,-3.181 -33.871,-5.76 -75.652,-5.76 -41.783,0 -75.653,2.579 -75.653,5.76 0,3.181 33.87,5.76 75.653,5.76 C -33.871,5.76 0,3.181 0,0"
             style="fill:#deeeff;fill-opacity:1;fill-rule:nonzero;stroke:none"
             id="path30" /></g><g
           id="g32"
           transform="translate(148.812,346.3335)"><path
             d="m 0,0 c 0,0 -77.104,16 -101.104,-26.667 -24,-42.666 5.334,-79.717 16,-112.192 10.667,-32.474 -12,-50.685 -13.333,-93.58 -1.333,-42.894 37.024,-39.05 138.417,-39.05 101.393,0 226.917,1.46 240.25,1.46 13.333,0 39.593,45.165 -5.87,80.597 -45.463,35.432 -20.772,56.418 14.883,80.258 C 324.897,-85.333 360.49,19.333 274.36,70 188.23,120.667 104.36,66 83.962,22.667 63.563,-20.667 0,0 0,0"
             style="fill:#deeeff;fill-opacity:1;fill-rule:nonzero;stroke:none"
             id="path34" /></g><g
           id="g36"
           transform="translate(101.9746,201.2051)"><path
             d="M 0,0 C 0,0 -12.933,45.793 -67.433,58.544 -63.933,-24.205 -6.067,-70.804 0,-75.004 6.067,-79.205 0,0 0,0"
             style="fill:#00d2c5;fill-opacity:1;fill-rule:nonzero;stroke:none"
             id="path38" /></g><g
           id="g40"
           transform="translate(101.042,133.9648)"><path
             d="M 0,0 C 0,0 -13,50.674 -82.5,45.104 -56.5,-25.965 -18.084,-29.675 5.208,-38.32 28.5,-46.965 0,0 0,0"
             style="fill:#6fefe3;fill-opacity:1;fill-rule:nonzero;stroke:none"
             id="path42" /></g><g
           id="g44"
           transform="translate(402.9141,310.7017)"><path
             d="M 0,0 C 0,0 20.422,42.979 76.288,46.418 58.973,-34.575 -5.882,-70.819 -12.567,-73.944 -19.252,-77.069 0,0 0,0"
             style="fill:#00d2c5;fill-opacity:1;fill-rule:nonzero;stroke:none"
             id="path46" /></g><g
           id="g48"
           transform="translate(392.5674,244.2559)"><path
             d="M 0,0 C 0,0 21.307,47.779 88.891,30.644 51.351,-35.064 12.856,-32.285 -11.555,-36.906 -35.966,-41.526 0,0 0,0"
             style="fill:#6fefe3;fill-opacity:1;fill-rule:nonzero;stroke:none"
             id="path50" /></g><g
           id="g52"
           transform="translate(333.9541,355.0977)"><path
             d="m 0,0 c -5.138,0 -9.302,4.165 -9.302,9.302 0,5.138 4.164,9.302 9.302,9.302 5.138,0 9.303,-4.164 9.303,-9.302 C 9.303,4.165 5.138,0 0,0 m -160.97,0 c -5.138,0 -9.302,4.165 -9.302,9.302 0,5.138 4.164,9.302 9.302,9.302 5.137,0 9.302,-4.164 9.302,-9.302 0,-5.137 -4.165,-9.302 -9.302,-9.302 M 68.165,28.701 h -297.3 c -9.373,0 -16.972,-7.598 -16.972,-16.972 v -269.377 c 0,-9.374 7.599,-16.972 16.972,-16.972 h 297.3 c 9.373,0 16.972,7.598 16.972,16.972 V 11.729 c 0,9.374 -7.599,16.972 -16.972,16.972"
             style="fill:#fffaff;fill-opacity:1;fill-rule:nonzero;stroke:none"
             id="path54" /></g><path
           d="m 231.577,228.304 h -40.785 v 30.232 h 40.785 z"
           style="fill:#ff596a;fill-opacity:1;fill-rule:nonzero;stroke:none"
           id="path56" /><g
           id="g58"
           transform="translate(333.9541,355.0977)"><path
             d="m 0,0 c -5.138,0 -9.302,4.165 -9.302,9.302 0,5.138 4.164,9.302 9.302,9.302 5.138,0 9.303,-4.164 9.303,-9.302 C 9.303,4.165 5.138,0 0,0 m -160.97,0 c -5.138,0 -9.302,4.165 -9.302,9.302 0,5.138 4.164,9.302 9.302,9.302 5.137,0 9.302,-4.164 9.302,-9.302 0,-5.137 -4.165,-9.302 -9.302,-9.302 M 68.165,28.701 h -297.3 c -9.373,0 -16.972,-7.598 -16.972,-16.972 v -25.48 H 85.137 v 25.48 c 0,9.374 -7.599,16.972 -16.972,16.972"
             style="fill:#ffb252;fill-opacity:1;fill-rule:nonzero;stroke:none"
             id="path60" /></g><path
           d="M 106.866,102.529 H 400.072 V 299.881 H 106.866 Z m 294.439,-1.232 H 105.634 v 199.816 h 295.671 z"
           style="fill:#dbdbdb;fill-opacity:1;fill-rule:nonzero;stroke:none"
           id="path62" /><path
           d="M 400.688,258.536 H 106.25 v 1.213 h 294.438 z"
           style="fill:#dbdbdb;fill-opacity:1;fill-rule:nonzero;stroke:none"
           id="path64" /><path
           d="M 400.688,227.09 H 106.25 v 1.214 h 294.438 z"
           style="fill:#dbdbdb;fill-opacity:1;fill-rule:nonzero;stroke:none"
           id="path66" /><path
           d="M 400.688,195.644 H 106.25 v 1.214 h 294.438 z"
           style="fill:#dbdbdb;fill-opacity:1;fill-rule:nonzero;stroke:none"
           id="path68" /><path
           d="M 400.688,164.198 H 106.25 v 1.213 h 294.438 z"
           style="fill:#dbdbdb;fill-opacity:1;fill-rule:nonzero;stroke:none"
           id="path70" /><path
           d="M 400.688,132.752 H 106.25 v 1.213 h 294.438 z"
           style="fill:#dbdbdb;fill-opacity:1;fill-rule:nonzero;stroke:none"
           id="path72" /><path
           d="m 148.812,101.913 h -1.197 v 198.584 h 1.197 z"
           style="fill:#dbdbdb;fill-opacity:1;fill-rule:nonzero;stroke:none"
           id="path74" /><path
           d="m 190.792,101.913 h -1.197 v 198.584 h 1.197 z"
           style="fill:#dbdbdb;fill-opacity:1;fill-rule:nonzero;stroke:none"
           id="path76" /><path
           d="m 232.774,101.913 h -1.197 v 198.584 h 1.197 z"
           style="fill:#dbdbdb;fill-opacity:1;fill-rule:nonzero;stroke:none"
           id="path78" /><path
           d="m 274.754,101.913 h -1.197 v 198.584 h 1.197 z"
           style="fill:#dbdbdb;fill-opacity:1;fill-rule:nonzero;stroke:none"
           id="path80" /><path
           d="m 316.735,101.913 h -1.197 v 198.584 h 1.197 z"
           style="fill:#dbdbdb;fill-opacity:1;fill-rule:nonzero;stroke:none"
           id="path82" /><path
           d="m 358.717,101.913 h -1.197 v 198.584 h 1.197 z"
           style="fill:#dbdbdb;fill-opacity:1;fill-rule:nonzero;stroke:none"
           id="path84" /></g></g><text
       transform="matrix(1,0,0,-1,122.3062,239.0215)"
       style="font-variant:normal;font-weight:normal;font-stretch:normal;font-size:12.1335px;font-family:Montserrat;-inkscape-font-specification:Montserrat-Regular;writing-mode:lr-tb;fill:#f23b66;fill-opacity:1;fill-rule:nonzero;stroke:none"
       id="text112"><tspan
         x="0 6.8432941"
         y="0"
         sodipodi:role="line"
         id="tspan86">31</tspan><tspan
         x="41.071896 49.080006"
         y="0"
         sodipodi:role="line"
         id="tspan88">01</tspan><tspan
         x="81.682724 89.690834"
         y="0"
         sodipodi:role="line"
         id="tspan90">02</tspan><tspan
         x="123.6161 131.52715 164.82146 172.85384 207.25232 215.28468 248.85808 256.89047"
         y="0"
         sodipodi:role="line"
         id="tspan92">03040506</tspan><tspan
         x="-1.9292265 6.0060825"
         y="31.5471"
         sodipodi:role="line"
         id="tspan94">07</tspan><tspan
         x="39.385342 47.417717 81.427917 89.460297 124.79305 129.17325 168.47365 172.85384 209.07234 213.45253 250.95718 255.33737"
         y="31.5471"
         sodipodi:role="line"
         id="tspan96">080910111213</tspan><tspan
         x="-0.59454149 3.7856519"
         y="62.693794"
         sodipodi:role="line"
         id="tspan98">14</tspan><tspan
         x="41.642174 46.022366 83.24794 87.628136 125.22985 129.61005 166.78709 171.16728 208.81754 213.19772 249.12502 255.96832"
         y="62.693794"
         sodipodi:role="line"
         id="tspan100">151617181920</tspan><tspan
         x="-0.036400501 6.8554273"
         y="94.240891"
         sodipodi:role="line"
         id="tspan102">21</tspan><tspan
         x="40.368153 47.259983 82.252998 89.144821 123.66463 130.27739 165.96201 172.85384 207.59206 214.43535 249.57396 256.41727"
         y="94.240891"
         sodipodi:role="line"
         id="tspan104">222324252627</tspan><tspan
         x="-1.7108235 5.1810045"
         y="125.13279"
         sodipodi:role="line"
         id="tspan106">28</tspan><tspan
         x="40.125484 47.017311 81.694855 88.538147 125.38759 132.23088"
         y="125.13279"
         sodipodi:role="line"
         id="tspan108">293031</tspan><tspan
         x="166.66576 174.67386 207.26445 215.27255 249.19783 257.10886"
         y="125.13279"
         sodipodi:role="line"
         id="tspan110">010203</tspan></text><text
       transform="matrix(1,0,0,-1,119.1758,273.8037)"
       style="font-variant:normal;font-weight:600;font-stretch:normal;font-size:13.3468px;font-family:'Montserrat SemiBold';-inkscape-font-specification:Montserrat-SemiBold;writing-mode:lr-tb;fill:#ff596a;fill-opacity:1;fill-rule:nonzero;stroke:none"
       id="text116"><tspan
         x="0 8.3951368"
         y="0"
         sodipodi:role="line"
         id="tspan114">Su</tspan></text><text
       transform="matrix(1,0,0,-1,105.7085,312.2837)"
       style="font-variant:normal;font-weight:600;font-stretch:normal;font-size:20.2341px;font-family:'Montserrat SemiBold';-inkscape-font-specification:Montserrat-SemiBold;writing-mode:lr-tb;fill:#ffb252;fill-opacity:1;fill-rule:nonzero;stroke:none"
       id="text120"><tspan
         x="0 10.663371 26.628077 43.017696"
         y="0"
         sodipodi:role="line"
         id="tspan118">JUNE</tspan></text><text
       transform="matrix(1,0,0,-1,158.8994,273.8037)"
       style="font-variant:normal;font-weight:600;font-stretch:normal;font-size:13.3468px;font-family:'Montserrat SemiBold';-inkscape-font-specification:Montserrat-SemiBold;writing-mode:lr-tb;fill:#5295bd;fill-opacity:1;fill-rule:nonzero;stroke:none"
       id="text124"><tspan
         x="0 12.746194 44.057785 51.919052 82.977058 97.511719 127.66214 135.69691 171.11932 179.48776 211.72029 220.11543"
         y="0"
         sodipodi:role="line"
         id="tspan122">MoTuWeThFrSa</tspan></text><g
       id="g126"><g
         id="g128"
         clip-path="url(#clipPath132)"><g
           id="g134"
           transform="translate(173.186,357.1201)"><path
             d="m 0,0 v 0 c -3.503,0 -6.37,2.866 -6.37,6.37 v 34.883 c 0,3.504 2.867,6.371 6.37,6.371 3.503,0 6.37,-2.867 6.37,-6.371 V 6.37 C 6.37,2.866 3.503,0 0,0"
             style="fill:#00d2c5;fill-opacity:1;fill-rule:nonzero;stroke:none"
             id="path136" /></g><g
           id="g138"
           transform="translate(334.1562,357.1201)"><path
             d="m 0,0 v 0 c -3.503,0 -6.37,2.866 -6.37,6.37 v 34.883 c 0,3.504 2.867,6.371 6.37,6.371 3.504,0 6.37,-2.867 6.37,-6.371 V 6.37 C 6.37,2.866 3.504,0 0,0"
             style="fill:#00d2c5;fill-opacity:1;fill-rule:nonzero;stroke:none"
             id="path140" /></g><g
           id="g142"
           transform="translate(131.6641,226.958)"><path
             d="m 0,0 c 0,0 0.211,-7.035 0.246,-8.02 -1.618,-2.215 -4.502,-3.412 -4.502,-3.412 0,0 -4.819,2.286 -6.824,6.12 0.07,3.694 0.352,10.202 0,11.608 C -7.738,3.271 0,0 0,0"
             style="fill:#ffbeac;fill-opacity:1;fill-rule:nonzero;stroke:none"
             id="path144" /></g><g
           id="g146"
           transform="translate(132.2939,244.0684)"><path
             d="m 0,0 c 0,0 5.982,-8.783 4.734,-17.19 -0.949,-2.064 -9.843,-4.792 -14.417,0.954 -2.442,-1.073 -3.646,3.509 -3.807,4.773 -0.16,1.264 2.202,0.869 2.888,-0.171 -1.166,5.027 -2.604,8.78 -1.026,9.837 C -10.05,-0.74 -1.022,1.695 0,0"
             style="fill:#ffbeac;fill-opacity:1;fill-rule:nonzero;stroke:none"
             id="path148" /></g><g
           id="g150"
           transform="translate(131.4302,251.8125)"><path
             d="m 0,0 c -1.227,-1.014 -4.028,-2.697 -4.365,-2.803 0.962,0.812 1.044,2.569 0.339,2.591 -0.705,0.023 -1.69,-1.29 -3.81,-2.399 -2.121,-1.109 -10.763,0.059 -9.834,-4.53 -1.993,-0.69 -3.712,-3.164 -2.196,-6.95 0,-0.004 -0.001,-0.008 -0.001,-0.012 0.272,-2.833 4.957,-10.847 6.868,-12.114 2.836,-1.879 5.843,0.445 6.765,1.06 0.923,0.615 1.523,1.945 0.702,4.149 -0.82,2.203 -1.332,5.33 0,5.382 1.333,0.051 2.461,-2.614 2.461,-2.614 l 0.841,0.307 c -0.492,1.128 -0.534,2.615 -0.073,4.716 0.462,2.101 0.321,4.254 0.321,4.254 -0.064,0.03 -0.141,0.056 -0.214,0.082 1.5,0.69 2.826,1.649 3.478,2.98 C 3.316,-1.742 1.227,1.013 0,0"
             style="fill:#323759;fill-opacity:1;fill-rule:nonzero;stroke:none"
             id="path152" /></g><g
           id="g154"
           transform="translate(118.291,80.0068)"><path
             d="m 0,0 c 0,0 -4.184,-2.18 -5.666,-2.789 -1.481,-0.61 0.175,-7.758 1.134,-8.106 0.958,-0.348 1.849,-1.656 1.404,-3.312 -0.446,-1.656 0.955,-11.583 4.703,-14.329 3.748,-2.745 3.673,0.224 3.28,3.622 -0.392,3.399 -1.761,14.76 0.723,17.897 C 8.062,-3.879 0,0 0,0"
             style="fill:#323759;fill-opacity:1;fill-rule:nonzero;stroke:none"
             id="path156" /></g><g
           id="g158"
           transform="translate(126.6577,58.6533)"><path
             d="m 0,0 c 0,0 -1.132,-6.869 -0.521,-8.438 0.609,-1.569 6.528,-1.166 8.24,-0.801 1.113,0.237 1.19,1.39 1.19,1.39 v 1.395 c 0,0 3.946,-1.292 7.825,1.611 2.18,2.403 1.503,6.783 -2.597,5.297 C 12.048,-0.303 9.946,-2.354 7.719,0.522 6.188,1.395 0,0 0,0"
             style="fill:#323759;fill-opacity:1;fill-rule:nonzero;stroke:none"
             id="path160" /></g><g
           id="g162"
           transform="translate(148.5347,156.3564)"><path
             d="m 0,0 c 0,0 3.486,-39.569 2.963,-45.496 -0.523,-5.927 -15.041,-29.172 -28.169,-40.401 -3.312,4.008 -6.127,8.985 -6.127,8.985 0,0 15.819,24.268 18.957,27.93 3.137,3.66 -6.45,33.816 -8.891,42.358 C -23.707,1.917 0,0 0,0"
             style="fill:#3e466d;fill-opacity:1;fill-rule:nonzero;stroke:none"
             id="path164" /></g><g
           id="g166"
           transform="translate(112.6255,150.9521)"><path
             d="m 0,0 c 0,0 2.876,-24.917 4.576,-37.646 1.699,-12.731 7.714,-52.736 7.714,-55.089 4.444,-2.092 11.766,0 11.766,0 0,0 -4.264,40.339 -4.526,47.515 -0.261,7.176 2.221,38.057 2.221,38.057 L 20.395,3.226 Z"
             style="fill:#3e466d;fill-opacity:1;fill-rule:nonzero;stroke:none"
             id="path168" /></g><g
           id="g170"
           transform="translate(105.6528,213.7061)"><path
             d="M 0,0 C 0,0 -7.997,-26.447 -8.543,-31.505 -9.09,-36.562 5.671,-61.778 5.671,-61.778 l 6.971,8.144 -10.6,21.377 4.931,13.326 z"
             style="fill:#5295bd;fill-opacity:1;fill-rule:nonzero;stroke:none"
             id="path172" /></g><g
           id="g174"
           transform="translate(118.7964,220.9492)"><path
             d="M 0,0 C 0,0 0.472,2.754 0.779,3.103 1.087,3.451 4.999,5.655 13.114,3.441 14.31,3.021 14.925,0 14.925,0 Z"
             style="fill:#f2f2f2;fill-opacity:1;fill-rule:nonzero;stroke:none"
             id="path176" /></g><g
           id="g178"
           transform="translate(105.6528,213.7061)"><path
             d="m 0,0 c 0,0 10.633,6.101 13.117,7.931 2.485,1.831 11.549,1.675 13.926,1.02 2.982,-0.82 16.144,-2.196 16.666,-2.196 1.961,-7.192 1.308,-15.428 0,-19.088 -1.307,-3.66 -4.139,-22.879 -3.268,-27.236 0.872,-4.359 5.927,-17.258 6.45,-18.129 -6.973,-9.24 -28.239,-10.285 -42.707,-8.019 0.697,14.643 3.486,20.918 3.835,28.762 C 8.367,-29.11 5.804,-24.509 4.336,-21.73 -1.094,-11.447 0,0 0,0"
             style="fill:#5295bd;fill-opacity:1;fill-rule:nonzero;stroke:none"
             id="path180" /></g><g
           id="g182"
           transform="translate(188.792,234.1738)"><path
             d="M 0,0 C 0,0 3.444,1.965 3.709,3.2 3.975,4.436 5.2,7.582 5.742,8.298 6.284,9.014 7.681,10.545 8.834,11.313 9.256,11.596 10.125,10.239 8.535,8.698 7.561,7.754 7.798,7.264 7.908,7.27 c 0.109,0.006 4.818,5.11 7.411,6.4 0.42,0.28 1.692,-0.351 0.425,-1.584 C 14.236,10.618 12.189,8.578 12.189,8.578 13.281,8.277 13.783,7.223 13.537,6.842 14.659,6.495 14.757,5.623 14.518,5.145 15.414,4.857 15.388,3.63 15.005,2.987 14.658,2.406 13.71,0.386 9.18,-0.593 6.89,-0.61 3.862,-3.585 3.862,-3.585 Z"
             style="fill:#ffbeac;fill-opacity:1;fill-rule:nonzero;stroke:none"
             id="path184" /></g><g
           id="g186"
           transform="translate(190.7368,236.3359)"><path
             d="M 0,0 1.678,1.53 5.722,-3.873 3.716,-5.132 Z"
             style="fill:#f2f2f2;fill-opacity:1;fill-rule:nonzero;stroke:none"
             id="path188" /></g><g
           id="g190"
           transform="translate(149.2905,220.4473)"><path
             d="m 0,0 c 0,0 19.698,1.434 22.56,2.637 2.861,1.203 19.205,14.075 19.205,14.075 0,0 4.039,-5.045 4.235,-5.787 C 38.533,1.121 28.811,-6.023 25.84,-7.248 22.869,-8.473 -1.058,-17.268 -3.083,-17.377 -1.674,-12.764 0.066,-7.327 0,0"
             style="fill:#5295bd;fill-opacity:1;fill-rule:nonzero;stroke:none"
             id="path192" /></g><g
           id="g194"
           transform="translate(244.2461,163.416)"><path
             d="m 0,0 c -0.45,-57.355 45.681,-104.217 103.037,-104.668 57.356,-0.45 104.218,45.681 104.668,103.037 0.45,57.357 -45.681,104.218 -103.037,104.668 C 47.313,103.488 0.451,57.356 0,0"
             style="fill:#ffb252;fill-opacity:1;fill-rule:nonzero;stroke:none"
             id="path196" /></g><g
           id="g198"
           transform="translate(258.1455,163.3076)"><path
             d="m 0,0 c -0.391,-49.68 39.566,-90.27 89.247,-90.66 49.68,-0.39 90.27,39.567 90.659,89.247 0.391,49.68 -39.566,90.269 -89.247,90.66 C 40.979,89.637 0.39,49.68 0,0"
             style="fill:#e6ffff;fill-opacity:1;fill-rule:nonzero;stroke:none"
             id="path200" /></g><g
           id="g202"><g
             id="g204" /><g
             id="g216"><g
               clip-path="url(#clipPath208)"
               opacity="0.570007"
               id="g214"><g
                 transform="translate(380.2764,159.0986)"
                 id="g212"><path
                   d="m 0,0 c 12.546,18.959 13.877,53.126 7.571,71.324 -11.492,6.75 -24.845,10.685 -39.132,10.797 -43.419,0.341 -78.895,-34.581 -79.236,-78.001 -0.099,-12.557 2.767,-24.44 7.919,-35.01 0.611,-0.087 1.26,-0.031 1.83,-0.269 C -72.332,-43.13 -23.589,-35.647 0,0"
                   style="fill:#fffaff;fill-opacity:1;fill-rule:nonzero;stroke:none"
                   id="path210" /></g></g></g></g><g
           id="g218"
           transform="translate(348.5752,223.2363)"><path
             d="m 0,0 v 0 c 1.512,-0.012 2.759,1.216 2.771,2.728 l 0.131,16.837 c 0.013,1.512 -1.215,2.759 -2.727,2.771 -1.512,0.012 -2.759,-1.216 -2.771,-2.728 L -2.729,2.771 C -2.74,1.259 -1.513,0.012 0,0"
             style="fill:#6fefe3;fill-opacity:1;fill-rule:nonzero;stroke:none"
             id="path220" /></g><g
           id="g222"
           transform="translate(347.4473,79.6299)"><path
             d="m 0,0 v 0 c 1.512,-0.013 2.759,1.215 2.771,2.728 l 0.132,16.836 c 0.012,1.513 -1.216,2.759 -2.728,2.772 -1.512,0.012 -2.759,-1.216 -2.771,-2.729 L -2.729,2.771 C -2.74,1.259 -1.513,0.012 0,0"
             style="fill:#6fefe3;fill-opacity:1;fill-rule:nonzero;stroke:none"
             id="path224" /></g><g
           id="g226"
           transform="translate(408.7344,162.125)"><path
             d="m 0,0 v 0 c -0.013,-1.513 1.215,-2.76 2.728,-2.771 l 16.836,-0.132 c 1.513,-0.012 2.76,1.216 2.772,2.727 0.012,1.512 -1.216,2.759 -2.729,2.771 L 2.771,2.728 C 1.259,2.739 0.012,1.512 0,0"
             style="fill:#6fefe3;fill-opacity:1;fill-rule:nonzero;stroke:none"
             id="path228" /></g><g
           id="g230"
           transform="translate(265.127,163.2529)"><path
             d="m 0,0 v 0 c -0.012,-1.513 1.216,-2.76 2.728,-2.771 l 16.837,-0.132 c 1.512,-0.012 2.759,1.215 2.771,2.727 0.013,1.512 -1.215,2.759 -2.728,2.771 L 2.771,2.728 C 1.259,2.739 0.012,1.512 0,0"
             style="fill:#6fefe3;fill-opacity:1;fill-rule:nonzero;stroke:none"
             id="path232" /></g><g
           id="g234"
           transform="translate(383.1328,227.6201)"><path
             d="M 0,0 C -0.77,-1.309 -0.333,-2.993 0.977,-3.763 2.285,-4.532 3.971,-4.096 4.74,-2.786 5.51,-1.478 5.072,0.208 3.763,0.978 2.454,1.747 0.77,1.31 0,0"
             style="fill:#6fefe3;fill-opacity:1;fill-rule:nonzero;stroke:none"
             id="path236" /></g><g
           id="g238"
           transform="translate(308.3242,100.3682)"><path
             d="M 0,0 C -0.77,-1.31 -0.332,-2.994 0.977,-3.764 2.286,-4.533 3.971,-4.096 4.74,-2.787 5.51,-1.478 5.073,0.207 3.764,0.977 2.455,1.746 0.77,1.309 0,0"
             style="fill:#6fefe3;fill-opacity:1;fill-rule:nonzero;stroke:none"
             id="path240" /></g><g
           id="g242"
           transform="translate(410.9482,201.3926)"><path
             d="m 0,0 c -1.32,-0.749 -1.784,-2.427 -1.035,-3.748 0.749,-1.32 2.427,-1.784 3.747,-1.035 1.321,0.749 1.785,2.427 1.036,3.747 C 2.999,0.285 1.321,0.749 0,0"
             style="fill:#6fefe3;fill-opacity:1;fill-rule:nonzero;stroke:none"
             id="path244" /></g><g
           id="g246"
           transform="translate(282.5371,128.5928)"><path
             d="m 0,0 c -1.321,-0.749 -1.785,-2.427 -1.036,-3.748 0.749,-1.321 2.427,-1.784 3.748,-1.036 1.32,0.749 1.784,2.428 1.035,3.748 C 2.998,0.285 1.32,0.749 0,0"
             style="fill:#6fefe3;fill-opacity:1;fill-rule:nonzero;stroke:none"
             id="path248" /></g><g
           id="g250"
           transform="translate(413.1182,127.5674)"><path
             d="m 0,0 c -1.309,0.77 -2.994,0.332 -3.764,-0.978 -0.769,-1.308 -0.332,-2.994 0.977,-3.763 1.309,-0.77 2.994,-0.332 3.764,0.977 C 1.746,-2.455 1.31,-0.77 0,0"
             style="fill:#6fefe3;fill-opacity:1;fill-rule:nonzero;stroke:none"
             id="path252" /></g><g
           id="g254"
           transform="translate(285.8652,202.375)"><path
             d="M 0,0 C -1.309,0.77 -2.994,0.332 -3.764,-0.977 -4.533,-2.286 -4.096,-3.971 -2.786,-4.74 -1.478,-5.51 0.208,-5.072 0.978,-3.764 1.747,-2.454 1.31,-0.77 0,0"
             style="fill:#6fefe3;fill-opacity:1;fill-rule:nonzero;stroke:none"
             id="path256" /></g><g
           id="g258"
           transform="translate(386.8906,99.751)"><path
             d="M 0,0 C -0.749,1.321 -2.427,1.784 -3.748,1.036 -5.069,0.287 -5.533,-1.391 -4.784,-2.712 -4.035,-4.033 -2.357,-4.497 -1.036,-3.748 0.285,-2.999 0.749,-1.321 0,0"
             style="fill:#6fefe3;fill-opacity:1;fill-rule:nonzero;stroke:none"
             id="path260" /></g><g
           id="g262"
           transform="translate(314.0908,228.1631)"><path
             d="M 0,0 C -0.749,1.32 -2.428,1.784 -3.748,1.035 -5.069,0.287 -5.533,-1.392 -4.784,-2.712 -4.035,-4.033 -2.357,-4.497 -1.036,-3.748 0.285,-2.999 0.748,-1.321 0,0"
             style="fill:#6fefe3;fill-opacity:1;fill-rule:nonzero;stroke:none"
             id="path264" /></g><g
           id="g266"
           transform="translate(376.0117,183.2744)"><path
             d="m 0,0 c 8.223,3.208 46.599,19.717 46.599,19.717 l 0.14,-0.263 0.28,-0.519 0.141,-0.263 c 0,0 -34.927,-22.92 -42.136,-28.013 -7.21,-5.092 -32.77,-13.056 -32.77,-13.056 l -0.467,0.866 -0.279,0.519 -0.466,0.866 c 0,0 20.735,16.938 28.958,20.146"
             style="fill:#ffb252;fill-opacity:1;fill-rule:nonzero;stroke:none"
             id="path268" /></g><g
           id="g270"
           transform="translate(322.0059,157.0195)"><path
             d="m 0,0 c -6.293,0.976 -36.164,4.168 -36.164,4.168 l -0.005,0.298 -0.009,0.59 -0.004,0.298 c 0,0 29.761,4.087 36.023,5.251 C 6.102,11.77 25.01,6.958 25.01,6.958 l 0.014,-0.983 0.009,-0.59 0.015,-0.984 C 25.048,4.401 6.293,-0.976 0,0"
             style="fill:#ffb252;fill-opacity:1;fill-rule:nonzero;stroke:none"
             id="path272" /></g><g
           id="g274"
           transform="translate(342.5996,162.6436)"><path
             d="m 0,0 c -0.023,-3.036 2.419,-5.518 5.456,-5.541 3.037,-0.024 5.518,2.418 5.542,5.455 C 11.021,2.951 8.579,5.433 5.542,5.456 2.505,5.479 0.024,3.037 0,0"
             style="fill:#6fefe3;fill-opacity:1;fill-rule:nonzero;stroke:none"
             id="path276" /></g><g
           id="g278"
           transform="translate(376.5059,101.5332)"><path
             d="m 0,0 c 0,0 -21.453,25.593 -32.449,22.188 -10.996,-3.405 6.473,-57.113 6.473,-57.113 l 10.558,0.872 -3.278,24.735 c 0,0 3.47,-20.357 20.819,-18.164 17.349,2.193 20.311,11.667 19.488,18.506 C 20.79,-2.137 0,0 0,0"
             style="fill:#323759;fill-opacity:1;fill-rule:nonzero;stroke:none"
             id="path280" /></g><g
           id="g282"
           transform="translate(398.1172,92.5576)"><path
             d="m 0,0 c -0.821,6.839 -21.611,8.976 -21.611,8.976 0,0 -0.076,0.09 -0.204,0.24 L -34.54,-12.791 c 3.164,-3.724 7.94,-6.614 15.052,-5.716 C -2.14,-16.313 0.822,-6.84 0,0"
             style="fill:#3e466d;fill-opacity:1;fill-rule:nonzero;stroke:none"
             id="path284" /></g><g
           id="g286"
           transform="translate(389.082,72.9111)"><path
             d="m 0,0 c 0,0 8.348,1.453 10.848,1.919 0.298,0.057 0.612,-0.055 0.79,-0.302 2.299,-3.194 1.725,-8.047 1.725,-8.047 l -1.428,-0.476 c 0,0 2.146,-6.404 1.207,-10.963 -0.426,-2.071 -2.715,-6.186 -10.259,-5.628 -1.308,1.806 0.241,3.235 1.861,5.125 2.413,2.816 1.76,9.689 -2.397,9.555 C -0.067,-6.806 0,0 0,0"
             style="fill:#323759;fill-opacity:1;fill-rule:nonzero;stroke:none"
             id="path288" /></g><g
           id="g290"
           transform="translate(399.9316,74.8311)"><path
             d="m 0,0 c -0.486,-0.091 -1.194,-0.219 -2.019,-0.366 -0.21,-0.265 -0.346,-0.613 -0.366,-1.068 -0.1,-2.414 0.704,-5.984 1.308,-8.045 0.603,-2.063 0.402,-10.058 -1.056,-12.624 -1.459,-2.564 -4.475,-2.43 -6.059,-2.95 0.063,-0.12 0.136,-0.241 0.225,-0.364 7.544,-0.558 9.833,3.557 10.259,5.628 0.939,4.56 -1.207,10.963 -1.207,10.963 l 1.429,0.476 c 0,0 0.573,4.853 -1.726,8.047 C 0.61,-0.056 0.3,0.056 0,0"
             style="fill:#4a5083;fill-opacity:1;fill-rule:nonzero;stroke:none"
             id="path292" /></g><g
           id="g294"
           transform="translate(399.4492,74.7422)"><path
             d="m 0,0 c -0.234,-0.251 -0.41,-0.593 -0.41,-1.093 0,-1.643 1.073,-6.505 1.542,-6.873 0.369,-0.29 1.053,-0.39 1.864,-0.291 0.006,0.047 0.563,4.864 -1.725,8.043 C 1.093,0.033 0.782,0.145 0.482,0.089 0.34,0.062 0.178,0.032 0,0"
             style="fill:#656d99;fill-opacity:1;fill-rule:nonzero;stroke:none"
             id="path296" /></g><g
           id="g298"
           transform="translate(401.082,66.0264)"><path
             d="m 0,0 c -0.592,0.124 -1.624,0.331 -1.624,0.331 0,0 0.788,-3.034 0.654,-6.924 -0.134,-3.888 -1.115,-7.195 -2.49,-8.302 -1.052,-0.846 -2.229,-1.429 -3.599,-1.742 5.903,0.267 7.817,3.785 8.201,5.653 0.939,4.559 -1.207,10.963 -1.207,10.963 z"
             style="fill:#656d99;fill-opacity:1;fill-rule:nonzero;stroke:none"
             id="path300" /></g><g
           id="g302"
           transform="translate(361.8594,98.1895)"><path
             d="m 0,0 c 0,0 -24.338,-26.016 -29.334,-35.135 -4.997,-9.119 4.56,-17.433 14.667,-10.996 10.107,6.437 14.776,18.305 26.233,20.048 6.576,1.001 18.439,1.006 19.278,22.167 C 31.501,12.699 0,0 0,0"
             style="fill:#3e466d;fill-opacity:1;fill-rule:nonzero;stroke:none"
             id="path304" /></g><g
           id="g306"
           transform="translate(334.2197,51.7041)"><path
             d="M 0,0 C 0,0 11.077,-6.418 33.003,2.231 51.711,9.272 58.561,10.68 58.561,10.68 L 55.456,22.347 C 47.889,19.531 18.091,22.31 0,0"
             style="fill:#3e466d;fill-opacity:1;fill-rule:nonzero;stroke:none"
             id="path308" /></g><g
           id="g310"
           transform="translate(369.4912,162.8525)"><path
             d="m 0,0 c 0,0 0.447,-6.892 0.505,-7.856 1.786,-2.014 4.715,-2.915 4.715,-2.915 0,0 4.494,2.682 6.096,6.614 -0.412,3.6 -1.293,9.93 -1.08,11.337 C 7.254,3.915 0,0 0,0"
             style="fill:#ffbeac;fill-opacity:1;fill-rule:nonzero;stroke:none"
             id="path312" /></g><g
           id="g314"
           transform="translate(367.2842,179.5059)"><path
             d="m 0,0 c 0,0 -5.026,-9.135 -3.025,-17.231 1.119,-1.926 10.06,-3.765 13.993,2.273 2.485,-0.82 3.235,3.768 3.274,5.017 0.04,1.25 -2.231,0.644 -2.804,-0.436 0.671,5.018 1.727,8.818 0.087,9.703 C 9.886,0.212 0.841,1.751 0,0"
             style="fill:#ffbeac;fill-opacity:1;fill-rule:nonzero;stroke:none"
             id="path316" /></g><g
           id="g318"
           transform="translate(367.4072,187.1504)"><path
             d="M 0,0 C 1.293,-0.875 4.186,-2.26 4.524,-2.331 3.51,-1.628 3.266,0.08 3.952,0.168 c 0.687,0.088 1.772,-1.104 3.945,-1.989 2.175,-0.886 10.507,1.059 10.028,-3.509 2.01,-0.489 3.919,-2.746 2.79,-6.585 0,-0.004 0.002,-0.008 0.002,-0.012 -0.002,-2.793 -3.833,-11.056 -5.581,-12.47 -2.596,-2.1 -5.748,-0.111 -6.707,0.405 -0.958,0.514 -1.668,1.759 -1.072,3.987 0.596,2.229 0.806,5.331 -0.501,5.257 -1.305,-0.074 -2.159,-2.782 -2.159,-2.782 l -0.85,0.222 c 0.375,1.147 0.278,2.603 -0.368,4.613 -0.646,2.009 -0.709,4.125 -0.709,4.125 0.06,0.036 0.132,0.067 0.202,0.1 -1.531,0.534 -2.914,1.347 -3.674,2.587 C -3.076,-2.01 -1.292,0.876 0,0"
             style="fill:#323759;fill-opacity:1;fill-rule:nonzero;stroke:none"
             id="path320" /></g><g
           id="g322"
           transform="translate(382.6182,158.1797)"><path
             d="M 0,0 C 0,0 -0.717,2.646 -1.05,2.958 -1.383,3.27 -5.408,5.059 -13.129,2.142 -14.259,1.62 -14.578,-1.389 -14.578,-1.389 Z"
             style="fill:#f2f2f2;fill-opacity:1;fill-rule:nonzero;stroke:none"
             id="path324" /></g><g
           id="g326"
           transform="translate(395.1904,157.5303)"><path
             d="m 0,0 c 0,0 -10.014,-0.232 -12.61,1.324 -2.597,1.557 -11.436,0.562 -13.699,-0.299 -2.835,-1.079 -15.563,-3.647 -16.074,-3.696 -1.246,-7.205 0.158,-15.189 1.776,-18.643 1.617,-3.455 9.736,-18.422 9.29,-22.76 -0.446,-4.337 -7.166,-18.311 -7.596,-19.211 7.669,-8.375 30.114,-6.956 44.036,-3.398 0.299,11.984 -2.196,15.861 -2.196,23.565 0,7.991 0.165,13.691 0,17.299 C 2.335,-12.869 0,0 0,0"
             style="fill:#00d2c5;fill-opacity:1;fill-rule:nonzero;stroke:none"
             id="path328" /></g><g
           id="g330"
           transform="translate(322.4766,157.9434)"><path
             d="m 0,0 c 0,0 -1.995,3.339 -1.626,4.523 0.369,1.184 0.841,4.463 0.723,5.336 -0.118,0.873 -0.43,3.744 -1.043,4.957 -0.225,0.445 -1.766,-1.184 -1.151,-3.268 0.376,-1.276 -0.062,-1.581 -0.153,-1.523 -0.09,0.059 1.073,1.052 -0.52,3.406 -0.224,0.441 -1.919,0.461 -2.099,-0.302 -0.057,-0.241 -0.408,0.08 -0.408,0.08 -1.078,0.269 -2.016,-0.391 -1.99,-0.834 -1.126,0.245 -1.63,-0.453 -1.656,-0.977 -0.904,0.186 -1.473,-0.875 -1.457,-1.608 0.016,-0.664 -0.148,-2.849 3.251,-5.869 1.947,-1.12 3.101,-5.121 3.101,-5.121 z"
             style="fill:#ffbeac;fill-opacity:1;fill-rule:nonzero;stroke:none"
             id="path332" /></g><g
           id="g334"
           transform="translate(322.4766,159.4658)"><path
             d="M 0,0 -0.979,1.986 -7.041,-0.68 -5.935,-2.723 Z"
             style="fill:#f2f2f2;fill-opacity:1;fill-rule:nonzero;stroke:none"
             id="path336" /></g><g
           id="g338"
           transform="translate(352.8076,154.8594)"><path
             d="m 0,0 c 0,0 -16.709,-16.685 -18.574,-14.276 -1.864,2.408 -11.447,19.844 -11.447,19.844 0,0 -7.136,-2.911 -7.663,-3.45 3.32,-11.784 9.04,-28.239 11.768,-29.821 9.074,-5.264 28.027,5.983 29.503,7.952 C 4.608,-15.129 4.928,-4.235 0,0"
             style="fill:#00d2c5;fill-opacity:1;fill-rule:nonzero;stroke:none"
             id="path340" /></g><g
           id="g342"
           transform="translate(400.6719,180.3066)"><path
             d="m 0,0 c 0,0 -1.513,3.583 -2.686,3.986 -1.172,0.403 -4.095,1.961 -4.73,2.573 -0.634,0.612 -2.765,2.56 -3.381,3.773 -0.224,0.443 1.999,0.723 3.317,-1.005 0.805,-1.058 1.311,-0.885 1.318,-0.777 0.006,0.107 -1.484,-0.243 -2.44,2.432 -0.222,0.443 0.764,1.822 1.486,1.515 0.227,-0.097 0.177,0.377 0.177,0.377 0.42,1.027 1.506,1.394 1.849,1.11 0.468,1.053 1.329,1.047 1.767,0.758 0.385,0.839 1.577,0.672 2.158,0.224 C -0.639,14.561 1.22,13.401 1.646,8.874 1.396,6.642 3.942,3.346 3.942,3.346 Z"
             style="fill:#ffbeac;fill-opacity:1;fill-rule:nonzero;stroke:none"
             id="path344" /></g><g
           id="g346"
           transform="translate(399.7637,181.4531)"><path
             d="M 0,0 -1.295,1.812 4.439,5.124 5.553,3.233 Z"
             style="fill:#f2f2f2;fill-opacity:1;fill-rule:nonzero;stroke:none"
             id="path348" /></g><g
           id="g350"
           transform="translate(394.2783,157.5303)"><path
             d="M 0,0 14.985,5.838 4.752,24.099 11.28,27.951 c 0,0 14.131,-16.026 15.474,-25.81 C 25.692,-6.638 5.821,-16.345 4.922,-17.099 4.023,-17.853 3.573,-19.16 3.245,-21.372 1.911,-18.557 0,0 0,0"
             style="fill:#00d2c5;fill-opacity:1;fill-rule:nonzero;stroke:none"
             id="path352" /></g></g></g></g></svg>
